<svg width="32" height="32" viewBox="0 0 32 32" fill="none" xmlns="http://www.w3.org/2000/svg">
<path d="M18.501 4V7H20.001V5.5H21.506V7H20.001V11.5H21.501V8.5H24.503V7H22.998V4H18.501ZM24.503 8.498V9.998H26.003V8.501L24.503 8.498ZM26.003 9.998V20.501H27.503V9.998H26.003ZM26.003 20.501H24.503V23.5H26.003V20.501ZM24.503 23.5L22.998 23.499V24.999H24.498L24.503 23.5ZM23.003 24.999H20.001V26.499H23.002L23.003 24.999ZM20.001 26.499H11.002V28H20.002L20.001 26.499ZM11.002 26.499V25H8.002V26.5L11.002 26.499ZM8.002 25V23.502H6.5V25.002L8.002 25ZM6.501 23.502V20.505H14.002V19.005H5V23.502H6.501ZM14.003 19.005H17V17.505H14.003V19.005ZM17 17.505H18.5V16.004H17V17.505ZM18.5 16.004H20.001V11.506H18.501L18.5 16.004Z" fill="#E4B408"/>
</svg>
